<svg xmlns="http://www.w3.org/2000/svg" width="720" height="960" viewBox="0 0 720 960"><defs><linearGradient id="bg_op100234" x1="0" y1="0" x2="1" y2="1"><stop offset="0%" stop-color="#484c61"/><stop offset="55%" stop-color="#34384c"/><stop offset="100%" stop-color="#2a2e41"/></linearGradient><radialGradient id="bgmist_op100234" cx="46%" cy="36%" r="76%"><stop offset="0%" stop-color="rgba(139,252,233,0.155)"/><stop offset="48%" stop-color="rgba(129,234,216,0.055)"/><stop offset="100%" stop-color="rgba(255,255,255,0)"/></radialGradient><radialGradient id="groundmist_op100234" cx="50%" cy="78%" r="58%"><stop offset="0%" stop-color="rgba(241,215,159,0.105)"/><stop offset="58%" stop-color="rgba(113,81,167,0.052)"/><stop offset="100%" stop-color="rgba(255,255,255,0)"/></radialGradient><linearGradient id="plant_op100234" x1="0" y1="0" x2="1" y2="1"><stop offset="0%" stop-color="#8962cb" stop-opacity="0.92"/><stop offset="60%" stop-color="#7151a7" stop-opacity="0.82"/><stop offset="100%" stop-color="#38326e" stop-opacity="0.9"/></linearGradient><linearGradient id="mut_op100234" x1="0" y1="0" x2="1" y2="1"><stop offset="0%" stop-color="#f7aff7"/><stop offset="50%" stop-color="#d295d2"/><stop offset="100%" stop-color="#81ead8"/></linearGradient><linearGradient id="gold_op100234" x1="0" y1="0" x2="1" y2="0"><stop offset="0%" stop-color="#8d713d"/><stop offset="50%" stop-color="#f1d79f"/><stop offset="100%" stop-color="#8d713d"/></linearGradient><radialGradient id="core_op100234" cx="50%" cy="50%" r="50%"><stop offset="0%" stop-color="#ffffff" stop-opacity="1"/><stop offset="30%" stop-color="#f1d79f" stop-opacity="0.75"/><stop offset="100%" stop-color="#d295d2" stop-opacity="0"/></radialGradient><clipPath id="artclip_op100234"><rect x="10" y="28" width="700" height="850" rx="18"/></clipPath><filter id="glow_op100234" x="-70%" y="-70%" width="240%" height="240%"><feGaussianBlur stdDeviation="6" result="b"/><feMerge><feMergeNode in="b"/><feMergeNode in="SourceGraphic"/></feMerge></filter><filter id="soft_op100234" x="-50%" y="-50%" width="200%" height="200%"><feGaussianBlur stdDeviation="3" result="b"/><feMerge><feMergeNode in="b"/><feMergeNode in="SourceGraphic"/></feMerge></filter></defs><rect width="720" height="960" rx="14" fill="url(#bg_op100234)"/><linearGradient id="rainbow_op100234" x1="0" y1="0" x2="1" y2="1"><stop offset="0%" stop-color="rgba(255,210,230,.10)"/><stop offset="28%" stop-color="rgba(255,238,184,.09)"/><stop offset="55%" stop-color="rgba(184,255,216,.08)"/><stop offset="78%" stop-color="rgba(180,226,255,.10)"/><stop offset="100%" stop-color="rgba(222,198,255,.10)"/></linearGradient><rect width="720" height="960" rx="14" fill="url(#rainbow_op100234)"/><path d="M 120 244 C 210 158 494 160 606 250" fill="none" stroke="rgba(255,255,255,.13)" stroke-width="2"/><rect width="720" height="960" rx="14" fill="rgba(3,8,16,.22)"/><rect width="720" height="960" rx="14" fill="url(#bgmist_op100234)" opacity="0.64"/><rect width="720" height="960" rx="14" fill="url(#groundmist_op100234)" opacity="0.56"/><rect width="720" height="960" rx="14" fill="rgba(255,252,238,0.07)"/><rect x="8" y="8" width="704" height="944" rx="12" fill="none" stroke="rgba(241,215,159,0.19)"/><rect x="14" y="14" width="692" height="932" rx="10" fill="none" stroke="rgba(255,255,255,.035)"/><circle cx="203.56" cy="390.22" r="1.38" fill="white" opacity="0.22"/><circle cx="689.85" cy="78.59" r="1.33" fill="white" opacity="0.24"/><circle cx="553.27" cy="474.26" r="1.25" fill="white" opacity="0.1"/><circle cx="290.16" cy="763.58" r="0.68" fill="white" opacity="0.2"/><circle cx="672.5" cy="98.53" r="0.86" fill="white" opacity="0.1"/><circle cx="397.57" cy="419.95" r="0.89" fill="white" opacity="0.22"/><circle cx="230.74" cy="497.27" r="1.29" fill="white" opacity="0.07"/><circle cx="585.42" cy="135.73" r="0.89" fill="white" opacity="0.17"/><circle cx="596.82" cy="564.48" r="0.99" fill="white" opacity="0.25"/><circle cx="600.68" cy="157.39" r="1" fill="white" opacity="0.15"/><circle cx="287.68" cy="601.71" r="1.39" fill="white" opacity="0.17"/><circle cx="604.24" cy="409.12" r="1.44" fill="white" opacity="0.14"/><circle cx="567.28" cy="342.76" r="0.78" fill="white" opacity="0.07"/><circle cx="619.59" cy="372.6" r="1.22" fill="white" opacity="0.15"/><circle cx="478.31" cy="745.14" r="0.92" fill="white" opacity="0.2"/><circle cx="341.25" cy="138.25" r="1.2" fill="white" opacity="0.25"/><circle cx="186.83" cy="285.48" r="0.5" fill="white" opacity="0.1"/><circle cx="259.16" cy="198.54" r="1.52" fill="white" opacity="0.17"/><circle cx="253.97" cy="174.64" r="0.69" fill="white" opacity="0.17"/><g filter="url(#soft_op100234)"><path d="M 623.1 88.47 L 640.26 123.23 L 605.94 123.23 Z" fill="url(#mut_op100234)" opacity=".58" stroke="rgba(241,215,159,0.38)" stroke-width="1.4"/><path d="M 619.14 101.23 L 630.8 121.03" stroke="rgba(255,255,255,.42)" stroke-width="1.4"/></g><path d="M 172 420 C 220 238 498 190 588 388" fill="none" stroke="url(#mut_op100234)" stroke-width="1.5" opacity="0.11"/><path d="M 282 660 Q 360 624.2 438 660" fill="none" stroke="rgba(241,215,159,0.047)" stroke-width="1.5"/><path d="M 222 660 Q 360 618.2 498 660" fill="none" stroke="rgba(241,215,159,0.056)" stroke-width="1.5"/><path d="M 152 660 Q 360 611.2 568 660" fill="none" stroke="rgba(241,215,159,0.067)" stroke-width="1.5"/><path d="M 360 702 L 490.75 708.21" stroke="rgba(241,215,159,0.045)"/><path d="M 360 702 L 472.83 715.72" stroke="rgba(241,215,159,0.045)"/><path d="M 360 702 L 442.74 721.75" stroke="rgba(241,215,159,0.045)"/><path d="M 360 702 L 403.72 725.65" stroke="rgba(241,215,159,0.045)"/><path d="M 360 702 L 360 726.99" stroke="rgba(241,215,159,0.045)"/><path d="M 360 702 L 316.27 725.65" stroke="rgba(241,215,159,0.045)"/><path d="M 360 702 L 277.25 721.75" stroke="rgba(241,215,159,0.045)"/><path d="M 360 702 L 247.16 715.72" stroke="rgba(241,215,159,0.045)"/><path d="M 360 702 L 229.24 708.21" stroke="rgba(241,215,159,0.045)"/><rect width="720" height="960" rx="14" fill="rgba(4,8,20,.28)"/><rect width="720" height="960" rx="14" fill="rgba(210,149,210,0.045)"/><g class="visual-safety-clip" clip-path="url(#artclip_op100234)"><g class="seed-genome-transform" transform="translate(0.19 28) rotate(2.78 360 704) translate(360 704) scale(1.01 0.88) translate(-360 -704)"><g><path d="M 302 710 Q 360 683.04 418 710" fill="none" stroke="rgba(241,215,159,0.15)" stroke-width="2"/><path d="M 266 710 Q 360 678.72 454 710" fill="none" stroke="rgba(241,215,159,0.12)" stroke-width="1.75"/><path d="M 228 710 Q 360 674.16 492 710" fill="none" stroke="rgba(241,215,159,0.09)" stroke-width="1.5"/><path d="M 360 710 L 490.75 716.46" stroke="rgba(241,215,159,0.1)" stroke-width="1"/><path d="M 360 710 L 480.28 721.8" stroke="rgba(241,215,159,0.1)" stroke-width="1"/><path d="M 360 710 L 464.01 726.57" stroke="rgba(241,215,159,0.1)" stroke-width="1"/><path d="M 360 710 L 442.74 730.54" stroke="rgba(241,215,159,0.1)" stroke-width="1"/><path d="M 360 710 L 417.48 733.52" stroke="rgba(241,215,159,0.1)" stroke-width="1"/><path d="M 360 710 L 389.44 735.37" stroke="rgba(241,215,159,0.1)" stroke-width="1"/><path d="M 360 710 L 360 735.99" stroke="rgba(241,215,159,0.1)" stroke-width="1"/><path d="M 360 710 L 330.55 735.37" stroke="rgba(241,215,159,0.1)" stroke-width="1"/><path d="M 360 710 L 302.51 733.52" stroke="rgba(241,215,159,0.1)" stroke-width="1"/><path d="M 360 710 L 277.25 730.54" stroke="rgba(241,215,159,0.1)" stroke-width="1"/><path d="M 360 710 L 255.98 726.57" stroke="rgba(241,215,159,0.1)" stroke-width="1"/><path d="M 360 710 L 239.71 721.8" stroke="rgba(241,215,159,0.1)" stroke-width="1"/><path d="M 360 710 L 229.24 716.46" stroke="rgba(241,215,159,0.1)" stroke-width="1"/></g><g filter="url(#soft_op100234)"><path d="M 360 710 Q 391.18 723.65 418.76 726.22 T 446.34 728.8" fill="none" stroke="rgba(129,234,216,0.77)" stroke-width="3.91" stroke-linecap="round" stroke-linejoin="round" opacity="0.74"/><path d="M 360 710 Q 388.6 724.18 413.38 729.32 T 438.15 734.46" fill="none" stroke="rgba(129,234,216,0.77)" stroke-width="3.24" stroke-linecap="round" stroke-linejoin="round" opacity="0.71"/><path d="M 360 710 Q 416.45 740.2 440.65 747.38 T 464.86 754.56" fill="none" stroke="rgba(129,234,216,0.77)" stroke-width="2.92" stroke-linecap="round" stroke-linejoin="round" opacity="0.75"/><path d="M 360 710 Q 398.43 741.38 414.67 745.7 T 430.91 750.02" fill="none" stroke="rgba(129,234,216,0.77)" stroke-width="3.36" stroke-linecap="round" stroke-linejoin="round" opacity="0.54"/><path d="M 360 710 Q 399.61 751.58 415.74 757.78 T 431.87 763.98" fill="none" stroke="rgba(129,234,216,0.77)" stroke-width="4.02" stroke-linecap="round" stroke-linejoin="round" opacity="0.65"/><path d="M 360 710 Q 397.88 754.64 410.38 764.62 T 422.88 774.6" fill="none" stroke="rgba(129,234,216,0.77)" stroke-width="1.78" stroke-linecap="round" stroke-linejoin="round" opacity="0.63"/><path d="M 360 710 Q 378.46 746.13 388.26 756.63 T 398.05 767.14" fill="none" stroke="rgba(129,234,216,0.77)" stroke-width="4.24" stroke-linecap="round" stroke-linejoin="round" opacity="0.59"/><path d="M 360 710 Q 367.48 758.66 377.92 770.81 T 388.37 782.97" fill="none" stroke="rgba(129,234,216,0.77)" stroke-width="2" stroke-linecap="round" stroke-linejoin="round" opacity="0.51"/><path d="M 360 710 Q 366.18 749.79 367.4 763.64 T 368.63 777.49" fill="none" stroke="rgba(129,234,216,0.77)" stroke-width="2.08" stroke-linecap="round" stroke-linejoin="round" opacity="0.49"/><path d="M 360 710 Q 363.45 740.27 358.98 746.59 T 354.51 752.9" fill="none" stroke="rgba(129,234,216,0.77)" stroke-width="1.63" stroke-linecap="round" stroke-linejoin="round" opacity="0.72"/><path d="M 360 710 Q 355.86 752.36 342.96 769.67 T 330.06 786.99" fill="none" stroke="rgba(129,234,216,0.77)" stroke-width="3.9" stroke-linecap="round" stroke-linejoin="round" opacity="0.54"/><path d="M 360 710 Q 346.52 765.05 328.3 775 T 310.08 784.95" fill="none" stroke="rgba(129,234,216,0.77)" stroke-width="2.83" stroke-linecap="round" stroke-linejoin="round" opacity="0.72"/><path d="M 360 710 Q 332.82 747.22 316.11 759.74 T 299.39 772.25" fill="none" stroke="rgba(129,234,216,0.77)" stroke-width="2.64" stroke-linecap="round" stroke-linejoin="round" opacity="0.48"/><path d="M 360 710 Q 323.45 739.88 308.15 750.15 T 292.85 760.43" fill="none" stroke="rgba(129,234,216,0.77)" stroke-width="3.49" stroke-linecap="round" stroke-linejoin="round" opacity="0.6"/><path d="M 360 710 Q 314.17 746.68 295.27 751.94 T 276.37 757.2" fill="none" stroke="rgba(129,234,216,0.77)" stroke-width="1.6" stroke-linecap="round" stroke-linejoin="round" opacity="0.56"/><path d="M 360 710 Q 314.71 733.01 281.16 745.39 T 247.61 757.76" fill="none" stroke="rgba(129,234,216,0.77)" stroke-width="1.99" stroke-linecap="round" stroke-linejoin="round" opacity="0.61"/><path d="M 360 710 Q 298.53 739.92 271.27 743.11 T 244.01 746.3" fill="none" stroke="rgba(129,234,216,0.77)" stroke-width="1.94" stroke-linecap="round" stroke-linejoin="round" opacity="0.52"/><path d="M 360 710 Q 310.6 720.25 272.12 728.88 T 233.64 737.51" fill="none" stroke="rgba(129,234,216,0.77)" stroke-width="2.35" stroke-linecap="round" stroke-linejoin="round" opacity="0.51"/></g><path d="M 360 704 Q 361.95 519.2 364.89 391.6 T 367.83 264" fill="none" stroke="rgba(113,81,167,0.87)" stroke-width="13" stroke-linecap="round" stroke-linejoin="round" opacity="0.86"/><path d="M 356 704 Q 361.56 519.2 362.7 391.6 T 363.83 264" fill="none" stroke="rgba(210,149,210,0.5)" stroke-width="3.25" stroke-linecap="round" stroke-linejoin="round" opacity="0.7"/><ellipse cx="308.76" cy="672.79" rx="30" ry="88" transform="rotate(-165 308.76 672.79)" fill="rgba(113,81,167,0.42)" stroke="rgba(241,215,159,0.15)" stroke-width="1" opacity="0.52" /><ellipse cx="314.51" cy="667.06" rx="30" ry="88" transform="rotate(-147.63 314.51 667.06)" fill="rgba(113,81,167,0.42)" stroke="rgba(241,215,159,0.15)" stroke-width="1" opacity="0.52" /><ellipse cx="320.84" cy="660.46" rx="30" ry="88" transform="rotate(-130.26 320.84 660.46)" fill="rgba(113,81,167,0.42)" stroke="rgba(241,215,159,0.15)" stroke-width="1" opacity="0.52" /><ellipse cx="336.14" cy="656.57" rx="30" ry="88" transform="rotate(-112.89 336.14 656.57)" fill="rgba(113,81,167,0.42)" stroke="rgba(241,215,159,0.15)" stroke-width="1" opacity="0.52" /><ellipse cx="354.1" cy="654.88" rx="30" ry="88" transform="rotate(-95.52 354.1 654.88)" fill="rgba(113,81,167,0.42)" stroke="rgba(241,215,159,0.15)" stroke-width="1" opacity="0.52" /><ellipse cx="371.93" cy="656.4" rx="30" ry="88" transform="rotate(-78.15 371.93 656.4)" fill="rgba(113,81,167,0.42)" stroke="rgba(241,215,159,0.15)" stroke-width="1" opacity="0.52" /><ellipse cx="385.63" cy="660.6" rx="30" ry="88" transform="rotate(-60.78 385.63 660.6)" fill="rgba(113,81,167,0.42)" stroke="rgba(241,215,159,0.15)" stroke-width="1" opacity="0.52" /><ellipse cx="400.15" cy="663.58" rx="30" ry="88" transform="rotate(-43.42 400.15 663.58)" fill="rgba(113,81,167,0.42)" stroke="rgba(241,215,159,0.15)" stroke-width="1" opacity="0.52" /><ellipse cx="413.98" cy="667.99" rx="30" ry="88" transform="rotate(-26.05 413.98 667.99)" fill="rgba(113,81,167,0.42)" stroke="rgba(241,215,159,0.15)" stroke-width="1" opacity="0.52" /><ellipse cx="416.47" cy="674.72" rx="30" ry="88" transform="rotate(-8.68 416.47 674.72)" fill="rgba(113,81,167,0.42)" stroke="rgba(241,215,159,0.15)" stroke-width="1" opacity="0.52" /><ellipse cx="413.64" cy="681.1" rx="30" ry="88" transform="rotate(8.68 413.64 681.1)" fill="rgba(113,81,167,0.42)" stroke="rgba(241,215,159,0.15)" stroke-width="1" opacity="0.52" /><ellipse cx="415.75" cy="688.33" rx="30" ry="88" transform="rotate(26.05 415.75 688.33)" fill="rgba(113,81,167,0.42)" stroke="rgba(241,215,159,0.15)" stroke-width="1" opacity="0.52" /><ellipse cx="403.63" cy="693.66" rx="30" ry="88" transform="rotate(43.42 403.63 693.66)" fill="rgba(113,81,167,0.42)" stroke="rgba(241,215,159,0.15)" stroke-width="1" opacity="0.52" /><ellipse cx="389.71" cy="698.16" rx="30" ry="88" transform="rotate(60.78 389.71 698.16)" fill="rgba(113,81,167,0.42)" stroke="rgba(241,215,159,0.15)" stroke-width="1" opacity="0.52" /><ellipse cx="371.71" cy="699.18" rx="30" ry="88" transform="rotate(78.15 371.71 699.18)" fill="rgba(113,81,167,0.42)" stroke="rgba(241,215,159,0.15)" stroke-width="1" opacity="0.52" /><ellipse cx="354.12" cy="701.04" rx="30" ry="88" transform="rotate(95.52 354.12 701.04)" fill="rgba(113,81,167,0.42)" stroke="rgba(241,215,159,0.15)" stroke-width="1" opacity="0.52" /><ellipse cx="335.62" cy="699.89" rx="30" ry="88" transform="rotate(112.89 335.62 699.89)" fill="rgba(113,81,167,0.42)" stroke="rgba(241,215,159,0.15)" stroke-width="1" opacity="0.52" /><ellipse cx="323.95" cy="694.14" rx="30" ry="88" transform="rotate(130.26 323.95 694.14)" fill="rgba(113,81,167,0.42)" stroke="rgba(241,215,159,0.15)" stroke-width="1" opacity="0.52" /><ellipse cx="314.6" cy="688.91" rx="30" ry="88" transform="rotate(147.63 314.6 688.91)" fill="rgba(113,81,167,0.42)" stroke="rgba(241,215,159,0.15)" stroke-width="1" opacity="0.52" /><ellipse cx="303.74" cy="683.71" rx="30" ry="88" transform="rotate(164.99 303.74 683.71)" fill="rgba(113,81,167,0.42)" stroke="rgba(241,215,159,0.15)" stroke-width="1" opacity="0.52" /><ellipse cx="330.24" cy="594" rx="13" ry="52" transform="rotate(-32.79 330.24 594)" fill="rgba(113,81,167,0.46)" stroke="rgba(129,234,216,0.18)" stroke-width="1" opacity="0.62" /><ellipse cx="381.4" cy="546" rx="13" ry="52" transform="rotate(29.77 381.4 546)" fill="rgba(113,81,167,0.46)" stroke="rgba(129,234,216,0.18)" stroke-width="1" opacity="0.62" /><ellipse cx="336.09" cy="498" rx="13" ry="52" transform="rotate(-39.03 336.09 498)" fill="rgba(113,81,167,0.46)" stroke="rgba(129,234,216,0.18)" stroke-width="1" opacity="0.62" /><ellipse cx="383.4" cy="450" rx="13" ry="52" transform="rotate(36.98 383.4 450)" fill="rgba(113,81,167,0.46)" stroke="rgba(129,234,216,0.18)" stroke-width="1" opacity="0.62" /><ellipse cx="340.05" cy="402" rx="13" ry="52" transform="rotate(-28.93 340.05 402)" fill="rgba(113,81,167,0.46)" stroke="rgba(129,234,216,0.18)" stroke-width="1" opacity="0.62" /><ellipse cx="391.34" cy="354" rx="13" ry="52" transform="rotate(35.62 391.34 354)" fill="rgba(113,81,167,0.46)" stroke="rgba(129,234,216,0.18)" stroke-width="1" opacity="0.62" /><path d="M 454 545 L 562 545" stroke="rgba(241,215,159,0.16)" stroke-width="1.5"/><path d="M 446.84 580.97 L 546.62 622.3" stroke="rgba(241,215,159,0.16)" stroke-width="1.5"/><path d="M 426.46 611.46 L 502.83 687.83" stroke="rgba(241,215,159,0.16)" stroke-width="1.5"/><path d="M 395.97 631.84 L 437.3 731.62" stroke="rgba(241,215,159,0.16)" stroke-width="1.5"/><path d="M 360 638.99 L 360 746.99" stroke="rgba(241,215,159,0.16)" stroke-width="1.5"/><path d="M 324.02 631.84 L 282.69 731.62" stroke="rgba(241,215,159,0.16)" stroke-width="1.5"/><path d="M 293.53 611.46 L 217.16 687.83" stroke="rgba(241,215,159,0.16)" stroke-width="1.5"/><path d="M 273.15 580.97 L 173.37 622.3" stroke="rgba(241,215,159,0.16)" stroke-width="1.5"/><path d="M 266 545 L 158 545" stroke="rgba(241,215,159,0.16)" stroke-width="1.5"/><path d="M 273.15 509.02 L 173.37 467.69" stroke="rgba(241,215,159,0.16)" stroke-width="1.5"/><path d="M 293.53 478.53 L 217.16 402.16" stroke="rgba(241,215,159,0.16)" stroke-width="1.5"/><path d="M 324.02 458.15 L 282.69 358.37" stroke="rgba(241,215,159,0.16)" stroke-width="1.5"/><path d="M 360 451 L 360 343" stroke="rgba(241,215,159,0.16)" stroke-width="1.5"/><path d="M 395.97 458.15 L 437.3 358.37" stroke="rgba(241,215,159,0.16)" stroke-width="1.5"/><path d="M 426.46 478.53 L 502.83 402.16" stroke="rgba(241,215,159,0.16)" stroke-width="1.5"/><path d="M 446.84 509.02 L 546.62 467.69" stroke="rgba(241,215,159,0.16)" stroke-width="1.5"/><ellipse cx="404.84" cy="264" rx="12.86" ry="41.13" transform="rotate(0 404.84 264)" fill="url(#mut_op100234)" stroke="rgba(241,215,159,0.32)" stroke-width="1" opacity="0.79" /><ellipse cx="403.03" cy="275.43" rx="12.86" ry="41.13" transform="rotate(17.99 403.03 275.43)" fill="url(#mut_op100234)" stroke="rgba(241,215,159,0.32)" stroke-width="1" opacity="0.79" /><ellipse cx="397.77" cy="285.75" rx="12.86" ry="41.13" transform="rotate(35.99 397.77 285.75)" fill="url(#mut_op100234)" stroke="rgba(241,215,159,0.32)" stroke-width="1" opacity="0.79" /><ellipse cx="389.59" cy="293.94" rx="12.86" ry="41.13" transform="rotate(53.99 389.59 293.94)" fill="url(#mut_op100234)" stroke="rgba(241,215,159,0.32)" stroke-width="1" opacity="0.79" /><ellipse cx="379.27" cy="299.19" rx="12.86" ry="41.13" transform="rotate(71.99 379.27 299.19)" fill="url(#mut_op100234)" stroke="rgba(241,215,159,0.32)" stroke-width="1" opacity="0.79" /><ellipse cx="367.83" cy="301" rx="12.86" ry="41.13" transform="rotate(89.99 367.83 301)" fill="url(#mut_op100234)" stroke="rgba(241,215,159,0.32)" stroke-width="1" opacity="0.79" /><ellipse cx="356.4" cy="299.19" rx="12.86" ry="41.13" transform="rotate(107.99 356.4 299.19)" fill="url(#mut_op100234)" stroke="rgba(241,215,159,0.32)" stroke-width="1" opacity="0.79" /><ellipse cx="346.08" cy="293.94" rx="12.86" ry="41.13" transform="rotate(125.99 346.08 293.94)" fill="url(#mut_op100234)" stroke="rgba(241,215,159,0.32)" stroke-width="1" opacity="0.79" /><ellipse cx="337.89" cy="285.75" rx="12.86" ry="41.13" transform="rotate(143.99 337.89 285.75)" fill="url(#mut_op100234)" stroke="rgba(241,215,159,0.32)" stroke-width="1" opacity="0.79" /><ellipse cx="332.64" cy="275.43" rx="12.86" ry="41.13" transform="rotate(161.99 332.64 275.43)" fill="url(#mut_op100234)" stroke="rgba(241,215,159,0.32)" stroke-width="1" opacity="0.79" /><ellipse cx="330.82" cy="264" rx="12.86" ry="41.13" transform="rotate(179.99 330.82 264)" fill="url(#mut_op100234)" stroke="rgba(241,215,159,0.32)" stroke-width="1" opacity="0.79" /><ellipse cx="332.64" cy="252.56" rx="12.86" ry="41.13" transform="rotate(197.99 332.64 252.56)" fill="url(#mut_op100234)" stroke="rgba(241,215,159,0.32)" stroke-width="1" opacity="0.79" /><ellipse cx="337.89" cy="242.24" rx="12.86" ry="41.13" transform="rotate(215.99 337.89 242.24)" fill="url(#mut_op100234)" stroke="rgba(241,215,159,0.32)" stroke-width="1" opacity="0.79" /><ellipse cx="346.08" cy="234.05" rx="12.86" ry="41.13" transform="rotate(233.99 346.08 234.05)" fill="url(#mut_op100234)" stroke="rgba(241,215,159,0.32)" stroke-width="1" opacity="0.79" /><ellipse cx="356.4" cy="228.8" rx="12.86" ry="41.13" transform="rotate(251.99 356.4 228.8)" fill="url(#mut_op100234)" stroke="rgba(241,215,159,0.32)" stroke-width="1" opacity="0.79" /><ellipse cx="367.83" cy="226.99" rx="12.86" ry="41.13" transform="rotate(269.99 367.83 226.99)" fill="url(#mut_op100234)" stroke="rgba(241,215,159,0.32)" stroke-width="1" opacity="0.79" /><ellipse cx="379.27" cy="228.8" rx="12.86" ry="41.13" transform="rotate(287.99 379.27 228.8)" fill="url(#mut_op100234)" stroke="rgba(241,215,159,0.32)" stroke-width="1" opacity="0.79" /><ellipse cx="389.59" cy="234.05" rx="12.86" ry="41.13" transform="rotate(305.99 389.59 234.05)" fill="url(#mut_op100234)" stroke="rgba(241,215,159,0.32)" stroke-width="1" opacity="0.79" /><ellipse cx="397.77" cy="242.24" rx="12.86" ry="41.13" transform="rotate(323.99 397.77 242.24)" fill="url(#mut_op100234)" stroke="rgba(241,215,159,0.32)" stroke-width="1" opacity="0.79" /><ellipse cx="403.03" cy="252.56" rx="12.86" ry="41.13" transform="rotate(341.99 403.03 252.56)" fill="url(#mut_op100234)" stroke="rgba(241,215,159,0.32)" stroke-width="1" opacity="0.79" /><circle cx="367.83" cy="264" r="34.22" fill="url(#core_op100234)" filter="url(#glow_op100234)"/><circle cx="367.83" cy="264" r="18.26" fill="rgba(241,215,159,0.78)"/><g class="intra-family-diversity v3"><ellipse cx="393.37" cy="375.62" rx="13" ry="30" transform="rotate(93.55 393.37 375.62)" fill="rgba(241,215,159,0.34)" stroke="rgba(210,149,210,0.2)" stroke-width="1" opacity="0.6" /><ellipse cx="390.49" cy="384.76" rx="13" ry="30" transform="rotate(111.93 390.49 384.76)" fill="rgba(241,215,159,0.34)" stroke="rgba(210,149,210,0.2)" stroke-width="1" opacity="0.6" /><ellipse cx="378.56" cy="396.47" rx="13" ry="30" transform="rotate(140.59 378.56 396.47)" fill="rgba(241,215,159,0.34)" stroke="rgba(210,149,210,0.2)" stroke-width="1" opacity="0.6" /><ellipse cx="363.32" cy="402.12" rx="13" ry="30" transform="rotate(164.88 363.32 402.12)" fill="rgba(241,215,159,0.34)" stroke="rgba(210,149,210,0.2)" stroke-width="1" opacity="0.6" /><ellipse cx="342.57" cy="402.22" rx="13" ry="30" transform="rotate(194.4 342.57 402.22)" fill="rgba(241,215,159,0.34)" stroke="rgba(210,149,210,0.2)" stroke-width="1" opacity="0.6" /><ellipse cx="325.05" cy="395.35" rx="13" ry="30" transform="rotate(222.73 325.05 395.35)" fill="rgba(241,215,159,0.34)" stroke="rgba(210,149,210,0.2)" stroke-width="1" opacity="0.6" /><ellipse cx="315.1" cy="385.09" rx="13" ry="30" transform="rotate(247.36 315.1 385.09)" fill="rgba(241,215,159,0.34)" stroke="rgba(210,149,210,0.2)" stroke-width="1" opacity="0.6" /><ellipse cx="311.98" cy="372.79" rx="13" ry="30" transform="rotate(271.96 311.98 372.79)" fill="rgba(241,215,159,0.34)" stroke="rgba(210,149,210,0.2)" stroke-width="1" opacity="0.6" /><ellipse cx="315.15" cy="362.41" rx="13" ry="30" transform="rotate(292.84 315.15 362.41)" fill="rgba(241,215,159,0.34)" stroke="rgba(210,149,210,0.2)" stroke-width="1" opacity="0.6" /><ellipse cx="325.2" cy="352.16" rx="13" ry="30" transform="rotate(317.55 325.2 352.16)" fill="rgba(241,215,159,0.34)" stroke="rgba(210,149,210,0.2)" stroke-width="1" opacity="0.6" /><ellipse cx="342.38" cy="345.42" rx="13" ry="30" transform="rotate(345.32 342.38 345.42)" fill="rgba(241,215,159,0.34)" stroke="rgba(210,149,210,0.2)" stroke-width="1" opacity="0.6" /><ellipse cx="359.92" cy="344.93" rx="13" ry="30" transform="rotate(370.2 359.92 344.93)" fill="rgba(241,215,159,0.34)" stroke="rgba(210,149,210,0.2)" stroke-width="1" opacity="0.6" /><ellipse cx="376.35" cy="349.91" rx="13" ry="30" transform="rotate(395.47 376.35 349.91)" fill="rgba(241,215,159,0.34)" stroke="rgba(210,149,210,0.2)" stroke-width="1" opacity="0.6" /><ellipse cx="389.98" cy="361.96" rx="13" ry="30" transform="rotate(426.2 389.98 361.96)" fill="rgba(241,215,159,0.34)" stroke="rgba(210,149,210,0.2)" stroke-width="1" opacity="0.6" /></g><g class="seed-genome phenotype-Arched" opacity="0.92"><path d="M 346.65 726.16 Q 382 728.15 384.78 751.03 T 387.56 773.9" fill="none" stroke="rgba(129,234,216,0.294)" stroke-width="1.59" stroke-linecap="round" stroke-linejoin="round" opacity="0.72"/><path d="M 346.65 726.16 Q 353.03 715.88 371.06 730.93 T 389.09 745.97" fill="none" stroke="rgba(129,234,216,0.294)" stroke-width="1.6" stroke-linecap="round" stroke-linejoin="round" opacity="0.72"/><path d="M 346.65 726.16 Q 443.9 742.5 448.94 757.18 T 453.99 771.86" fill="none" stroke="rgba(129,234,216,0.294)" stroke-width="1.05" stroke-linecap="round" stroke-linejoin="round" opacity="0.72"/><path d="M 346.65 726.16 Q 380.09 721.12 412.72 736.8 T 445.36 752.48" fill="none" stroke="rgba(129,234,216,0.294)" stroke-width="1.42" stroke-linecap="round" stroke-linejoin="round" opacity="0.72"/><path d="M 346.65 726.16 Q 432.12 727.76 434.17 751.42 T 436.22 775.08" fill="none" stroke="rgba(129,234,216,0.294)" stroke-width="2.56" stroke-linecap="round" stroke-linejoin="round" opacity="0.72"/><path d="M 346.65 726.16 Q 388.78 717.52 465.9 733.2 T 543.02 748.88" fill="none" stroke="rgba(129,234,216,0.294)" stroke-width="1.94" stroke-linecap="round" stroke-linejoin="round" opacity="0.72"/><path d="M 346.65 726.16 Q 440.53 738 453.84 750.82 T 467.16 763.63" fill="none" stroke="rgba(129,234,216,0.294)" stroke-width="1.95" stroke-linecap="round" stroke-linejoin="round" opacity="0.72"/><path d="M 346.65 726.16 Q 398.34 724.95 451.92 741.46 T 505.49 757.97" fill="none" stroke="rgba(129,234,216,0.294)" stroke-width="1.44" stroke-linecap="round" stroke-linejoin="round" opacity="0.72"/><path d="M 346.65 726.16 Q 493.39 734.01 514.1 745.7 T 534.81 757.39" fill="none" stroke="rgba(129,234,216,0.294)" stroke-width="2.04" stroke-linecap="round" stroke-linejoin="round" opacity="0.72"/><path d="M 346.65 726.16 Q 354.13 723.11 385.64 737.37 T 417.15 751.62" fill="none" stroke="rgba(129,234,216,0.294)" stroke-width="1.18" stroke-linecap="round" stroke-linejoin="round" opacity="0.72"/><path d="M 346.65 726.16 Q 430.37 737.31 437.41 754.53 T 444.45 771.76" fill="none" stroke="rgba(129,234,216,0.294)" stroke-width="1.27" stroke-linecap="round" stroke-linejoin="round" opacity="0.72"/><path d="M 346.65 619.33 Q 296.92 588.41 267.74 587.49 T 238.55 586.57" fill="none" stroke="rgba(113,81,167,0.2)" stroke-width="2.59" stroke-linecap="round" stroke-linejoin="round" opacity="0.6"/><ellipse cx="297.15" cy="561.58" rx="11.46" ry="46.24" transform="rotate(-47.46 297.15 561.58)" fill="rgba(113,81,167,0.404)" stroke="rgba(241,215,159,0.08)" stroke-width="1" opacity="0.62" /><ellipse cx="248.59" cy="576.06" rx="9.88" ry="27.66" transform="rotate(-54.3 248.59 576.06)" fill="rgba(113,81,167,0.308)" stroke="rgba(241,215,159,0.08)" stroke-width="1" opacity="0.62" /><ellipse cx="244.48" cy="584.42" rx="15.92" ry="34.53" transform="rotate(-84.09 244.48 584.42)" fill="rgba(113,81,167,0.389)" stroke="rgba(241,215,159,0.08)" stroke-width="1" opacity="0.62" /><ellipse cx="247.33" cy="596.89" rx="9.09" ry="26.23" transform="rotate(-50.66 247.33 596.89)" fill="rgba(113,81,167,0.403)" stroke="rgba(241,215,159,0.08)" stroke-width="1" opacity="0.62" /><ellipse cx="241.26" cy="573.14" rx="10.8" ry="22.58" transform="rotate(-52.19 241.26 573.14)" fill="rgba(113,81,167,0.312)" stroke="rgba(241,215,159,0.08)" stroke-width="1" opacity="0.62" /><path d="M 346.65 510.49 Q 389.12 484.95 414.04 454.76 T 438.97 424.56" fill="none" stroke="rgba(113,81,167,0.2)" stroke-width="1.69" stroke-linecap="round" stroke-linejoin="round" opacity="0.6"/><ellipse cx="418.2" cy="419.13" rx="12.24" ry="34.51" transform="rotate(45.26 418.2 419.13)" fill="rgba(113,81,167,0.303)" stroke="rgba(241,215,159,0.08)" stroke-width="1" opacity="0.62" /><ellipse cx="407.63" cy="458.92" rx="8.74" ry="39.46" transform="rotate(43.28 407.63 458.92)" fill="rgba(113,81,167,0.379)" stroke="rgba(241,215,159,0.08)" stroke-width="1" opacity="0.62" /><ellipse cx="424.98" cy="430.26" rx="19.86" ry="45.64" transform="rotate(77.27 424.98 430.26)" fill="rgba(113,81,167,0.334)" stroke="rgba(241,215,159,0.08)" stroke-width="1" opacity="0.62" /><ellipse cx="393.72" cy="417.34" rx="19.09" ry="29.6" transform="rotate(70.51 393.72 417.34)" fill="rgba(113,81,167,0.365)" stroke="rgba(241,215,159,0.08)" stroke-width="1" opacity="0.62" /><ellipse cx="417.7" cy="450.01" rx="16.85" ry="39.73" transform="rotate(73.53 417.7 450.01)" fill="rgba(113,81,167,0.384)" stroke="rgba(241,215,159,0.08)" stroke-width="1" opacity="0.62" /><path d="M 346.65 507.72 Q 321.91 452.72 307.39 455.48 T 292.87 458.24" fill="none" stroke="rgba(113,81,167,0.2)" stroke-width="1.48" stroke-linecap="round" stroke-linejoin="round" opacity="0.6"/><ellipse cx="301.11" cy="433.09" rx="9.47" ry="49.97" transform="rotate(-38.45 301.11 433.09)" fill="rgba(113,81,167,0.403)" stroke="rgba(241,215,159,0.08)" stroke-width="1" opacity="0.62" /><ellipse cx="291.59" cy="448.04" rx="21.31" ry="30.52" transform="rotate(-91.56 291.59 448.04)" fill="rgba(113,81,167,0.387)" stroke="rgba(241,215,159,0.08)" stroke-width="1" opacity="0.62" /><ellipse cx="308.14" cy="407.96" rx="17.08" ry="51.46" transform="rotate(-44 308.14 407.96)" fill="rgba(113,81,167,0.426)" stroke="rgba(241,215,159,0.08)" stroke-width="1" opacity="0.62" /><ellipse cx="316.05" cy="484.21" rx="8.86" ry="34.29" transform="rotate(-92.59 316.05 484.21)" fill="rgba(113,81,167,0.324)" stroke="rgba(241,215,159,0.08)" stroke-width="1" opacity="0.62" /><ellipse cx="298.14" cy="408.18" rx="21.64" ry="24.09" transform="rotate(-40.41 298.14 408.18)" fill="rgba(113,81,167,0.352)" stroke="rgba(241,215,159,0.08)" stroke-width="1" opacity="0.62" /><path d="M 346.65 544.93 Q 392.08 475.01 418.74 484.56 T 445.41 494.1" fill="none" stroke="rgba(113,81,167,0.2)" stroke-width="2.44" stroke-linecap="round" stroke-linejoin="round" opacity="0.6"/><ellipse cx="422.84" cy="454.38" rx="19.88" ry="44.63" transform="rotate(39.97 422.84 454.38)" fill="rgba(113,81,167,0.405)" stroke="rgba(241,215,159,0.08)" stroke-width="1" opacity="0.62" /><ellipse cx="441.78" cy="512.96" rx="10.25" ry="53.14" transform="rotate(84.59 441.78 512.96)" fill="rgba(113,81,167,0.365)" stroke="rgba(241,215,159,0.08)" stroke-width="1" opacity="0.62" /><ellipse cx="416.6" cy="457.01" rx="20.15" ry="28.43" transform="rotate(61.33 416.6 457.01)" fill="rgba(113,81,167,0.33)" stroke="rgba(241,215,159,0.08)" stroke-width="1" opacity="0.62" /><ellipse cx="400.47" cy="465.43" rx="9.8" ry="31.18" transform="rotate(66.05 400.47 465.43)" fill="rgba(113,81,167,0.293)" stroke="rgba(241,215,159,0.08)" stroke-width="1" opacity="0.62" /><ellipse cx="410.78" cy="515.9" rx="9.66" ry="34.39" transform="rotate(52.91 410.78 515.9)" fill="rgba(113,81,167,0.358)" stroke="rgba(241,215,159,0.08)" stroke-width="1" opacity="0.62" /><path d="M 346.65 524.97 Q 293.46 462.16 262.25 450.71 T 231.03 439.25" fill="none" stroke="rgba(113,81,167,0.2)" stroke-width="2.12" stroke-linecap="round" stroke-linejoin="round" opacity="0.6"/><ellipse cx="282.43" cy="436.21" rx="17.71" ry="33.72" transform="rotate(-84.38 282.43 436.21)" fill="rgba(113,81,167,0.386)" stroke="rgba(241,215,159,0.08)" stroke-width="1" opacity="0.62" /><ellipse cx="284.02" cy="437.14" rx="21.73" ry="27.87" transform="rotate(-63.77 284.02 437.14)" fill="rgba(113,81,167,0.393)" stroke="rgba(241,215,159,0.08)" stroke-width="1" opacity="0.62" /><ellipse cx="278.83" cy="473.58" rx="9.85" ry="44.82" transform="rotate(-64.24 278.83 473.58)" fill="rgba(113,81,167,0.369)" stroke="rgba(241,215,159,0.08)" stroke-width="1" opacity="0.62" /><ellipse cx="241.32" cy="493.35" rx="19.66" ry="50.35" transform="rotate(-55.92 241.32 493.35)" fill="rgba(113,81,167,0.331)" stroke="rgba(241,215,159,0.08)" stroke-width="1" opacity="0.62" /><ellipse cx="277.93" cy="463.73" rx="17.65" ry="22.64" transform="rotate(-46.96 277.93 463.73)" fill="rgba(113,81,167,0.429)" stroke="rgba(241,215,159,0.08)" stroke-width="1" opacity="0.62" /><path d="M 346.65 601.41 Q 412.6 536.13 451.3 537.9 T 490.01 539.67" fill="none" stroke="rgba(113,81,167,0.2)" stroke-width="2.56" stroke-linecap="round" stroke-linejoin="round" opacity="0.6"/><ellipse cx="492.4" cy="551.57" rx="16.53" ry="31.58" transform="rotate(92.96 492.4 551.57)" fill="rgba(113,81,167,0.324)" stroke="rgba(241,215,159,0.08)" stroke-width="1" opacity="0.62" /><ellipse cx="480.35" cy="568.74" rx="10.04" ry="51.15" transform="rotate(45.98 480.35 568.74)" fill="rgba(113,81,167,0.298)" stroke="rgba(241,215,159,0.08)" stroke-width="1" opacity="0.62" /><ellipse cx="440.91" cy="507.26" rx="19.78" ry="36.64" transform="rotate(81.72 440.91 507.26)" fill="rgba(113,81,167,0.29)" stroke="rgba(241,215,159,0.08)" stroke-width="1" opacity="0.62" /><ellipse cx="487.32" cy="509.86" rx="18.37" ry="47.45" transform="rotate(72.6 487.32 509.86)" fill="rgba(113,81,167,0.331)" stroke="rgba(241,215,159,0.08)" stroke-width="1" opacity="0.62" /><ellipse cx="473.72" cy="524.56" rx="12.69" ry="37.72" transform="rotate(76.87 473.72 524.56)" fill="rgba(113,81,167,0.33)" stroke="rgba(241,215,159,0.08)" stroke-width="1" opacity="0.62" /><path d="M 346.65 531.6 Q 316.17 487.55 298.28 479.02 T 280.39 470.49" fill="none" stroke="rgba(113,81,167,0.2)" stroke-width="1.78" stroke-linecap="round" stroke-linejoin="round" opacity="0.6"/><ellipse cx="282.28" cy="440.27" rx="9.33" ry="49.79" transform="rotate(-55.45 282.28 440.27)" fill="rgba(113,81,167,0.32)" stroke="rgba(241,215,159,0.08)" stroke-width="1" opacity="0.62" /><ellipse cx="287.99" cy="500.49" rx="21.82" ry="51.29" transform="rotate(-54.42 287.99 500.49)" fill="rgba(113,81,167,0.342)" stroke="rgba(241,215,159,0.08)" stroke-width="1" opacity="0.62" /><ellipse cx="299.7" cy="448.83" rx="11.05" ry="27.12" transform="rotate(-35.05 299.7 448.83)" fill="rgba(113,81,167,0.308)" stroke="rgba(241,215,159,0.08)" stroke-width="1" opacity="0.62" /><ellipse cx="314.46" cy="456.16" rx="19.72" ry="24.67" transform="rotate(-48.59 314.46 456.16)" fill="rgba(113,81,167,0.311)" stroke="rgba(241,215,159,0.08)" stroke-width="1" opacity="0.62" /><ellipse cx="311.17" cy="498.5" rx="16.85" ry="32.21" transform="rotate(-78.43 311.17 498.5)" fill="rgba(113,81,167,0.423)" stroke="rgba(241,215,159,0.08)" stroke-width="1" opacity="0.62" /><path d="M 346.65 637.55 Q 386.02 597.32 409.13 594.25 T 432.24 591.19" fill="none" stroke="rgba(113,81,167,0.2)" stroke-width="2.54" stroke-linecap="round" stroke-linejoin="round" opacity="0.6"/><ellipse cx="425.9" cy="608.71" rx="8.36" ry="41.78" transform="rotate(71.83 425.9 608.71)" fill="rgba(113,81,167,0.388)" stroke="rgba(241,215,159,0.08)" stroke-width="1" opacity="0.62" /><ellipse cx="414.29" cy="579.48" rx="21.45" ry="36.25" transform="rotate(88.92 414.29 579.48)" fill="rgba(113,81,167,0.427)" stroke="rgba(241,215,159,0.08)" stroke-width="1" opacity="0.62" /><ellipse cx="416.87" cy="548.7" rx="10.89" ry="42.62" transform="rotate(38.04 416.87 548.7)" fill="rgba(113,81,167,0.32)" stroke="rgba(241,215,159,0.08)" stroke-width="1" opacity="0.62" /><ellipse cx="407.28" cy="586.86" rx="12.93" ry="42.66" transform="rotate(85.66 407.28 586.86)" fill="rgba(113,81,167,0.299)" stroke="rgba(241,215,159,0.08)" stroke-width="1" opacity="0.62" /><ellipse cx="418.42" cy="558.92" rx="14.44" ry="51.14" transform="rotate(68.07 418.42 558.92)" fill="rgba(113,81,167,0.349)" stroke="rgba(241,215,159,0.08)" stroke-width="1" opacity="0.62" /><path d="M 346.65 645.1 Q 316.46 576.65 298.74 584.06 T 281.02 591.47" fill="none" stroke="rgba(113,81,167,0.2)" stroke-width="1.98" stroke-linecap="round" stroke-linejoin="round" opacity="0.6"/><ellipse cx="292.18" cy="577.82" rx="14.56" ry="27.39" transform="rotate(-36.76 292.18 577.82)" fill="rgba(113,81,167,0.357)" stroke="rgba(241,215,159,0.08)" stroke-width="1" opacity="0.62" /><ellipse cx="315.31" cy="547.3" rx="14.31" ry="39.8" transform="rotate(-68.5 315.31 547.3)" fill="rgba(113,81,167,0.343)" stroke="rgba(241,215,159,0.08)" stroke-width="1" opacity="0.62" /><ellipse cx="287.94" cy="545.73" rx="12.8" ry="50.63" transform="rotate(-75.36 287.94 545.73)" fill="rgba(113,81,167,0.368)" stroke="rgba(241,215,159,0.08)" stroke-width="1" opacity="0.62" /><ellipse cx="300.47" cy="563.94" rx="16" ry="43.91" transform="rotate(-89.18 300.47 563.94)" fill="rgba(113,81,167,0.376)" stroke="rgba(241,215,159,0.08)" stroke-width="1" opacity="0.62" /><ellipse cx="316.5" cy="549.91" rx="11.18" ry="53.73" transform="rotate(-94.01 316.5 549.91)" fill="rgba(113,81,167,0.42)" stroke="rgba(241,215,159,0.08)" stroke-width="1" opacity="0.62" /><path d="M 346.65 644.28 Q 378.55 595.85 397.28 596.7 T 416.01 597.56" fill="none" stroke="rgba(113,81,167,0.2)" stroke-width="1.28" stroke-linecap="round" stroke-linejoin="round" opacity="0.6"/><ellipse cx="393.38" cy="580.41" rx="8.14" ry="38.12" transform="rotate(85.26 393.38 580.41)" fill="rgba(113,81,167,0.351)" stroke="rgba(241,215,159,0.08)" stroke-width="1" opacity="0.62" /><ellipse cx="406.86" cy="622.59" rx="20.92" ry="44.11" transform="rotate(74.65 406.86 622.59)" fill="rgba(113,81,167,0.346)" stroke="rgba(241,215,159,0.08)" stroke-width="1" opacity="0.62" /><ellipse cx="393.03" cy="574.56" rx="18.47" ry="32.3" transform="rotate(59.33 393.03 574.56)" fill="rgba(113,81,167,0.355)" stroke="rgba(241,215,159,0.08)" stroke-width="1" opacity="0.62" /><ellipse cx="392.89" cy="567.75" rx="15.82" ry="43.88" transform="rotate(60.72 392.89 567.75)" fill="rgba(113,81,167,0.38)" stroke="rgba(241,215,159,0.08)" stroke-width="1" opacity="0.62" /><ellipse cx="396.64" cy="620.74" rx="15.47" ry="49.45" transform="rotate(68.64 396.64 620.74)" fill="rgba(113,81,167,0.379)" stroke="rgba(241,215,159,0.08)" stroke-width="1" opacity="0.62" /><circle cx="367.42" cy="501.59" r="10.37" fill="rgba(241,215,159,0.605)" stroke="rgba(241,215,159,0.15)"/><circle cx="306.47" cy="547.35" r="5.06" fill="rgba(210,149,210,0.532)" stroke="rgba(241,215,159,0.15)"/><circle cx="378.59" cy="460.27" r="5" fill="rgba(129,234,216,0.605)" stroke="rgba(241,215,159,0.15)"/><circle cx="249.53" cy="350.1" r="4.09" fill="rgba(113,81,167,0.533)" stroke="rgba(241,215,159,0.15)"/><circle cx="302.3" cy="367.62" r="9.62" fill="rgba(241,215,159,0.521)" stroke="rgba(241,215,159,0.15)"/><circle cx="370.71" cy="541.01" r="10.51" fill="rgba(210,149,210,0.586)" stroke="rgba(241,215,159,0.15)"/><circle cx="329.19" cy="616.59" r="9.85" fill="rgba(129,234,216,0.616)" stroke="rgba(241,215,159,0.15)"/><circle cx="382.19" cy="568.2" r="5.87" fill="rgba(113,81,167,0.612)" stroke="rgba(241,215,159,0.15)"/><circle cx="404.4" cy="272.88" r="10.13" fill="rgba(241,215,159,0.473)" stroke="rgba(241,215,159,0.15)"/><circle cx="388.28" cy="343.36" r="11.3" fill="rgba(210,149,210,0.554)" stroke="rgba(241,215,159,0.15)"/><circle cx="312.49" cy="630.16" r="4.83" fill="rgba(129,234,216,0.54)" stroke="rgba(241,215,159,0.15)"/><circle cx="364.21" cy="501.27" r="12.04" fill="rgba(113,81,167,0.609)" stroke="rgba(241,215,159,0.15)"/><circle cx="330.68" cy="639.75" r="7.09" fill="rgba(241,215,159,0.505)" stroke="rgba(241,215,159,0.15)"/><path d="M 166.65 516.16 Q 353.63 346.16 442.64 406.16 T 531.65 466.16" fill="none" stroke="rgba(210,149,210,0.12)" stroke-width="2.2" stroke-linecap="round" stroke-linejoin="round" opacity="0.7" stroke-dasharray="12 16"/></g><path d="M 276.69 335.16 Q 355.66 232.35 393.48 276.31 T 431.29 320.27" fill="none" stroke="url(#mut_op100234)" stroke-width="1.4" stroke-linecap="round" stroke-linejoin="round" opacity="0.27"/><path d="M 176.22 354.04 Q 380.73 292.86 466.3 288.76 T 551.88 284.65" fill="none" stroke="url(#mut_op100234)" stroke-width="1.4" stroke-linecap="round" stroke-linejoin="round" opacity="0.27"/><path d="M 178.7 553.79 Q 410.7 477.16 447.48 498.15 T 484.26 519.14" fill="none" stroke="url(#mut_op100234)" stroke-width="1.4" stroke-linecap="round" stroke-linejoin="round" opacity="0.27"/><path d="M 242.4 274.23 Q 336.52 150.79 393.77 177.76 T 451.02 204.74" fill="none" stroke="url(#mut_op100234)" stroke-width="1.4" stroke-linecap="round" stroke-linejoin="round" opacity="0.27"/><path d="M 230.04 618.12 Q 391.33 545.81 430.04 576.64 T 468.76 607.47" fill="none" stroke="url(#mut_op100234)" stroke-width="1.4" stroke-linecap="round" stroke-linejoin="round" opacity="0.27"/></g></g><g class="sealed-frame" filter="url(#soft_op100234)"><rect x="18" y="64" width="684" height="888" rx="28" fill="rgba(198,255,224,0.018)" stroke="rgba(72,214,157,0.48)" stroke-width="3.6"/><rect x="32" y="78" width="656" height="860" rx="26" fill="none" stroke="rgba(198,255,224,0.62)" stroke-width="1.4"/><path d="M 114 98 H 606" stroke="rgba(72,214,157,0.18)" stroke-width="1.6" stroke-dasharray="10 18"/><path d="M 114 918 H 606" stroke="rgba(72,214,157,0.18)" stroke-width="1.6" stroke-dasharray="10 18"/><path d="M 52 160 V 856" stroke="rgba(72,214,157,0.18)" stroke-width="1.6" stroke-dasharray="10 18"/><path d="M 668 160 V 856" stroke="rgba(72,214,157,0.18)" stroke-width="1.6" stroke-dasharray="10 18"/><circle cx="683.12" cy="418.25" r="4.39" fill="rgba(198,255,224,0.28)"/><circle cx="510.75" cy="94.13" r="2.61" fill="rgba(198,255,224,0.28)"/><circle cx="670.85" cy="722.08" r="3.11" fill="rgba(198,255,224,0.28)"/><circle cx="660.92" cy="912.42" r="2.59" fill="rgba(198,255,224,0.28)"/><circle cx="415.93" cy="81.86" r="2.78" fill="rgba(198,255,224,0.28)"/><circle cx="575.06" cy="929.08" r="1.82" fill="rgba(198,255,224,0.28)"/><circle cx="587.25" cy="81.01" r="1.91" fill="rgba(198,255,224,0.28)"/><circle cx="84.09" cy="915.18" r="2.3" fill="rgba(198,255,224,0.28)"/></g></svg>